999
dxfrw 0.6.3
  0
SECTION
  2
HEADER
  9
$ACADVER
  1
AC1021
  9
$DWGCODEPAGE
  3
ANSI_1252
  9
$INSBASE
 10
0
 20
0
 30
0
  9
$EXTMIN
 10
0
 20
-39.99999999999997
 30
0
  9
$EXTMAX
 10
220
 20
288
 30
0
  9
$LIMMIN
 10
0
 20
0
  9
$LIMMAX
 10
420
 20
297
  9
$ORTHOMODE
 70
    0
  9
$REGENMODE
 70
    1
  9
$FILLMODE
 70
    1
  9
$QTEXTMODE
 70
    0
  9
$MIRRTEXT
 70
    0
  9
$LTSCALE
 40
1
  9
$ATTMODE
 70
    0
  9
$TEXTSIZE
 40
2.5
  9
$TRACEWID
 40
15.68
  9
$TEXTSTYLE
  7
STANDARD
  9
$CLAYER
  8
0
  9
$CELTYPE
  6
BYLAYER
  9
$CECOLOR
 62
  256
  9
$CELTSCALE
 40
1
  9
$DISPSILH
 70
    0
  9
$DIMSCALE
 40
2.5
  9
$DIMASZ
 40
2.5
  9
$DIMEXO
 40
0.625
  9
$DIMDLI
 40
3.75
  9
$DIMRND
 40
0
  9
$DIMDLE
 40
0
  9
$DIMEXE
 40
1.25
  9
$DIMTP
 40
0
  9
$DIMTM
 40
0
  9
$DIMTXT
 40
2.5
  9
$DIMCEN
 40
2.5
  9
$DIMTSZ
 40
0
  9
$DIMTOL
 70
    0
  9
$DIMLIM
 70
    0
  9
$DIMTIH
 70
    0
  9
$DIMTOH
 70
    0
  9
$DIMSE1
 70
    0
  9
$DIMSE2
 70
    0
  9
$DIMTAD
 70
    1
  9
$DIMZIN
 70
    8
  9
$DIMBLK
  1

  9
$DIMASO
 70
    1
  9
$DIMSHO
 70
    1
  9
$DIMPOST
  1

  9
$DIMAPOST
  1

  9
$DIMALT
 70
    0
  9
$DIMALTD
 70
    3
  9
$DIMALTF
 40
0.03937
  9
$DIMLFAC
 40
1
  9
$DIMTOFL
 70
    1
  9
$DIMTVP
 40
0
  9
$DIMTIX
 70
    0
  9
$DIMSOXD
 70
    0
  9
$DIMSAH
 70
    0
  9
$DIMBLK1
  1

  9
$DIMBLK2
  1

  9
$DIMSTYLE
  2
Standard
  9
$DIMCLRD
 70
    0
  9
$DIMCLRE
 70
    0
  9
$DIMCLRT
 70
    0
  9
$DIMTFAC
 40
1
  9
$DIMGAP
 40
0.625
  9
$DIMJUST
 70
    0
  9
$DIMSD1
 70
    0
  9
$DIMSD2
 70
    0
  9
$DIMTOLJ
 70
    0
  9
$DIMTZIN
 70
    8
  9
$DIMALTZ
 70
    0
  9
$DIMALTTZ
 70
    0
  9
$DIMUPT
 70
    0
  9
$DIMDEC
 70
    2
  9
$DIMTDEC
 70
    2
  9
$DIMALTU
 70
    2
  9
$DIMALTTD
 70
    3
  9
$DIMTXSTY
  7
STANDARD
  9
$DIMAUNIT
 70
    0
  9
$DIMADEC
 70
    0
  9
$DIMALTRND
 40
0
  9
$DIMAZIN
 70
    0
  9
$DIMDSEP
 70
   44
  9
$DIMATFIT
 70
    3
  9
$DIMFRAC
 70
    0
  9
$DIMLDRBLK
  1
STANDARD
  9
$DIMLUNIT
 70
    2
  9
$DIMLWD
 70
   -2
  9
$DIMLWE
 70
   -2
  9
$DIMTMOVE
 70
    0
  9
$DIMFXL
 40
1
  9
$DIMFXLON
 70
    0
  9
$DIMJOGANG
 40
0.7854
  9
$DIMTFILL
 70
    0
  9
$DIMTFILLCLR
 70
    0
  9
$DIMARCSYM
 70
    0
  9
$DIMLTYPE
  6

  9
$DIMLTEX1
  6

  9
$DIMLTEX2
  6

  9
$LUNITS
 70
    2
  9
$LUPREC
 70
    4
  9
$SKETCHINC
 40
1
  9
$FILLETRAD
 40
0
  9
$AUNITS
 70
    0
  9
$AUPREC
 70
    2
  9
$MENU
  1
.
  9
$ELEVATION
 40
0
  9
$PELEVATION
 40
0
  9
$THICKNESS
 40
0
  9
$LIMCHECK
 70
    0
  9
$CHAMFERA
 40
0
  9
$CHAMFERB
 40
0
  9
$CHAMFERC
 40
0
  9
$CHAMFERD
 40
0
  9
$SKPOLY
 70
    0
  9
$USRTIMER
 70
    1
  9
$ANGBASE
 50
0
  9
$ANGDIR
 70
    0
  9
$PDMODE
 70
   34
  9
$PDSIZE
 40
0
  9
$PLINEWID
 40
0
  9
$SPLFRAME
 70
    0
  9
$SPLINETYPE
 70
    2
  9
$SPLINESEGS
 70
    8
  9
$HANDSEED
  5
20000
  9
$SURFTAB1
 70
    6
  9
$SURFTAB2
 70
    6
  9
$SURFTYPE
 70
    6
  9
$SURFU
 70
    6
  9
$SURFV
 70
    6
  9
$UCSBASE
  2

  9
$UCSNAME
  2

  9
$UCSORG
 10
0
 20
0
 30
0
  9
$UCSXDIR
 10
1
 20
0
 30
0
  9
$UCSYDIR
 10
0
 20
1
 30
0
  9
$UCSORTHOREF
  2

  9
$UCSORTHOVIEW
 70
    0
  9
$UCSORGTOP
 10
0
 20
0
 30
0
  9
$UCSORGBOTTOM
 10
0
 20
0
 30
0
  9
$UCSORGLEFT
 10
0
 20
0
 30
0
  9
$UCSORGRIGHT
 10
0
 20
0
 30
0
  9
$UCSORGFRONT
 10
0
 20
0
 30
0
  9
$UCSORGBACK
 10
0
 20
0
 30
0
  9
$PUCSBASE
  2

  9
$PUCSNAME
  2

  9
$PUCSORG
 10
0
 20
0
 30
0
  9
$PUCSXDIR
 10
1
 20
0
 30
0
  9
$PUCSYDIR
 10
0
 20
1
 30
0
  9
$PUCSORTHOREF
  2

  9
$PUCSORTHOVIEW
 70
    0
  9
$PUCSORGTOP
 10
0
 20
0
 30
0
  9
$PUCSORGBOTTOM
 10
0
 20
0
 30
0
  9
$PUCSORGLEFT
 10
0
 20
0
 30
0
  9
$PUCSORGRIGHT
 10
0
 20
0
 30
0
  9
$PUCSORGFRONT
 10
0
 20
0
 30
0
  9
$PUCSORGBACK
 10
0
 20
0
 30
0
  9
$USERI1
 70
    0
  9
$USERI2
 70
    0
  9
$USERI3
 70
    0
  9
$USERI4
 70
    0
  9
$USERI5
 70
    0
  9
$USERR1
 40
0
  9
$USERR2
 40
0
  9
$USERR3
 40
0
  9
$USERR4
 40
0
  9
$USERR5
 40
0
  9
$WORLDVIEW
 70
    1
  9
$SHADEDGE
 70
    3
  9
$SHADEDIF
 70
   70
  9
$TILEMODE
 70
    1
  9
$MAXACTVP
 70
   64
  9
$PINSBASE
 10
0
 20
0
 30
0
  9
$PLIMCHECK
 70
    0
  9
$PEXTMIN
 10
0
 20
0
 30
0
  9
$PEXTMAX
 10
0
 20
0
 30
0
  9
$SNAPSTYLE
 70
    0
  9
$PLIMMIN
 10
0
 20
0
  9
$PLIMMAX
 10
210
 20
297
  9
$UNITMODE
 70
    0
  9
$VISRETAIN
 70
    1
  9
$PLINEGEN
 70
    0
  9
$PSLTSCALE
 70
    1
  9
$TREEDEPTH
 70
 3020
  9
$CMLSTYLE
  2
Standard
  9
$CMLJUST
 70
    0
  9
$CMLSCALE
 40
20
  9
$PROXYGRAPHICS
 70
    1
  9
$MEASUREMENT
 70
    1
  9
$CELWEIGHT
370
   -1
  9
$ENDCAPS
280
    0
  9
$JOINSTYLE
280
    0
  9
$LWDISPLAY
290
    0
  9
$INSUNITS
 70
    4
  9
$HYPERLINKBASE
  1

  9
$STYLESHEET
  1

  9
$XEDIT
290
    1
  9
$CEPSNTYPE
380
    0
  9
$PSTYLEMODE
290
    1
  9
$EXTNAMES
290
    1
  9
$PSVPSCALE
 40
1
  9
$OLESTARTUP
290
    0
  9
$SORTENTS
280
  127
  9
$INDEXCTL
280
    0
  9
$HIDETEXT
280
    1
  9
$XCLIPFRAME
290
    0
  9
$HALOGAP
280
    0
  9
$OBSCOLOR
 70
  257
  9
$OBSLTYPE
280
    0
  9
$INTERSECTIONDISPLAY
280
    0
  9
$INTERSECTIONCOLOR
 70
  257
  9
$DIMASSOC
280
    1
  9
$PROJECTNAME
  1

  9
$CAMERADISPLAY
290
    0
  9
$LENSLENGTH
 40
50
  9
$CAMERAHEIGHT
 40
0
  9
$STEPSPERSEC
 40
2
  9
$STEPSIZE
 40
50
  9
$3DDWFPREC
 40
2
  9
$PSOLWIDTH
 40
5
  9
$PSOLHEIGHT
 40
80
  9
$LOFTANG1
 40
1.570796326794897
  9
$LOFTANG2
 40
1.570796326794897
  9
$LOFTMAG1
 40
0
  9
$LOFTMAG2
 40
0
  9
$LOFTPARAM
 70
    7
  9
$LOFTNORMALS
280
    1
  9
$LATITUDE
 40
1
  9
$LONGITUDE
 40
1
  9
$NORTHDIRECTION
 40
0
  9
$TIMEZONE
 70
-8000
  9
$LIGHTGLYPHDISPLAY
280
    1
  9
$TILEMODELIGHTSYNCH
280
    1
  9
$SOLIDHIST
280
    1
  9
$SHOWHIST
280
    1
  9
$DWFFRAME
280
    2
  9
$DGNFRAME
280
    0
  9
$REALWORLDSCALE
290
    1
  9
$INTERFERECOLOR
 62
    1
  9
$CSHADOW
280
    0
  9
$SHADOWPLANELOCATION
 40
0
  0
ENDSEC
  0
SECTION
  2
CLASSES
  0
ENDSEC
  0
SECTION
  2
TABLES
  0
TABLE
  2
VPORT
  5
8
330
0
100
AcDbSymbolTable
 70
    1
  0
VPORT
  5
31
330
2
100
AcDbSymbolTableRecord
100
AcDbViewportTableRecord
  2
*ACTIVE
 70
    0
 10
0
 20
0
 11
1
 21
1
 12
241.7106779366387
 22
159.0699321840002
 13
0
 23
0
 14
10
 24
10
 15
10
 25
10
 16
0
 26
0
 36
1
 17
0
 27
0
 37
0
 40
404.0214236795659
 41
1.987967914438503
 42
50
 43
0
 44
0
 50
0
 51
0
 71
    0
 72
  100
 73
    1
 74
    3
 75
    0
 76
    1
 77
    0
 78
    0
281
    0
 65
    1
110
0
120
0
130
0
111
1
121
0
131
0
112
0
122
1
132
0
 79
    0
146
0
348
10020
 60
    7
 61
    5
292
1
282
    1
141
0
142
0
 63
  250
421
3358443
  0
ENDTAB
  0
TABLE
  2
LTYPE
  5
5
330
0
100
AcDbSymbolTable
 70
    4
  0
LTYPE
  5
14
330
5
100
AcDbSymbolTableRecord
100
AcDbLinetypeTableRecord
  2
ByBlock
 70
    0
  3

 72
   65
 73
    0
 40
0
  0
LTYPE
  5
15
330
5
100
AcDbSymbolTableRecord
100
AcDbLinetypeTableRecord
  2
ByLayer
 70
    0
  3

 72
   65
 73
    0
 40
0
  0
LTYPE
  5
16
330
5
100
AcDbSymbolTableRecord
100
AcDbLinetypeTableRecord
  2
Continuous
 70
    0
  3
Solid line
 72
   65
 73
    0
 40
0
  0
LTYPE
  5
32
330
5
100
AcDbSymbolTableRecord
100
AcDbLinetypeTableRecord
  2
DOT
 70
    0
  3
Dot . . . . . . . . . . . . . . . . . . . . . .
 72
   65
 73
    2
 40
6.35
 49
0
 74
    0
 49
-6.35
 74
    0
  0
LTYPE
  5
33
330
5
100
AcDbSymbolTableRecord
100
AcDbLinetypeTableRecord
  2
DOTTINY
 70
    0
  3
Dot (.15x) .....................................
 72
   65
 73
    2
 40
0.9525
 49
0
 74
    0
 49
-0.9525
 74
    0
  0
LTYPE
  5
34
330
5
100
AcDbSymbolTableRecord
100
AcDbLinetypeTableRecord
  2
DOT2
 70
    0
  3
Dot (.5x) .....................................
 72
   65
 73
    2
 40
3.175
 49
0
 74
    0
 49
-3.175
 74
    0
  0
LTYPE
  5
35
330
5
100
AcDbSymbolTableRecord
100
AcDbLinetypeTableRecord
  2
DOTX2
 70
    0
  3
Dot (2x) .  .  .  .  .  .  .  .  .  .  .  .  .
 72
   65
 73
    2
 40
12.7
 49
0
 74
    0
 49
-12.7
 74
    0
  0
LTYPE
  5
36
330
5
100
AcDbSymbolTableRecord
100
AcDbLinetypeTableRecord
  2
DASHED
 70
    0
  3
Dashed _ _ _ _ _ _ _ _ _ _ _ _ _ _ _ _ _
 72
   65
 73
    2
 40
19.05
 49
12.7
 74
    0
 49
-6.35
 74
    0
  0
LTYPE
  5
37
330
5
100
AcDbSymbolTableRecord
100
AcDbLinetypeTableRecord
  2
DASHEDTINY
 70
    0
  3
Dashed (.15x) _ _ _ _ _ _ _ _ _ _ _ _ _ _ _ _ _
 72
   65
 73
    2
 40
2.8575
 49
1.905
 74
    0
 49
-0.9525
 74
    0
  0
LTYPE
  5
38
330
5
100
AcDbSymbolTableRecord
100
AcDbLinetypeTableRecord
  2
DASHED2
 70
    0
  3
Dashed (.5x) _ _ _ _ _ _ _ _ _ _ _ _ _ _ _ _ _
 72
   65
 73
    2
 40
9.524999999999999
 49
6.35
 74
    0
 49
-3.175
 74
    0
  0
LTYPE
  5
39
330
5
100
AcDbSymbolTableRecord
100
AcDbLinetypeTableRecord
  2
DASHEDX2
 70
    0
  3
Dashed (2x) ____  ____  ____  ____  ____  ___
 72
   65
 73
    2
 40
38.09999999999999
 49
25.4
 74
    0
 49
-12.7
 74
    0
  0
LTYPE
  5
3A
330
5
100
AcDbSymbolTableRecord
100
AcDbLinetypeTableRecord
  2
DASHDOT
 70
    0
  3
Dash dot __ . __ . __ . __ . __ . __ . __ . __
 72
   65
 73
    4
 40
25.4
 49
12.7
 74
    0
 49
-6.35
 74
    0
 49
0
 74
    0
 49
-6.35
 74
    0
  0
LTYPE
  5
3B
330
5
100
AcDbSymbolTableRecord
100
AcDbLinetypeTableRecord
  2
DASHDOTTINY
 70
    0
  3
Dash dot (.15x) _._._._._._._._._._._._._._._.
 72
   65
 73
    4
 40
3.81
 49
1.905
 74
    0
 49
-0.9525
 74
    0
 49
0
 74
    0
 49
-0.9525
 74
    0
  0
LTYPE
  5
3C
330
5
100
AcDbSymbolTableRecord
100
AcDbLinetypeTableRecord
  2
DASHDOT2
 70
    0
  3
Dash dot (.5x) _._._._._._._._._._._._._._._.
 72
   65
 73
    4
 40
12.7
 49
6.35
 74
    0
 49
-3.175
 74
    0
 49
0
 74
    0
 49
-3.175
 74
    0
  0
LTYPE
  5
3D
330
5
100
AcDbSymbolTableRecord
100
AcDbLinetypeTableRecord
  2
DASHDOTX2
 70
    0
  3
Dash dot (2x) ____  .  ____  .  ____  .  ___
 72
   65
 73
    4
 40
50.8
 49
25.4
 74
    0
 49
-12.7
 74
    0
 49
0
 74
    0
 49
-12.7
 74
    0
  0
LTYPE
  5
3E
330
5
100
AcDbSymbolTableRecord
100
AcDbLinetypeTableRecord
  2
DIVIDE
 70
    0
  3
Divide ____ . . ____ . . ____ . . ____ . . ____
 72
   65
 73
    6
 40
31.75
 49
12.7
 74
    0
 49
-6.35
 74
    0
 49
0
 74
    0
 49
-6.35
 74
    0
 49
0
 74
    0
 49
-6.35
 74
    0
  0
LTYPE
  5
3F
330
5
100
AcDbSymbolTableRecord
100
AcDbLinetypeTableRecord
  2
DIVIDETINY
 70
    0
  3
Divide (.15x) __..__..__..__..__..__..__..__.._
 72
   65
 73
    6
 40
4.7625
 49
1.905
 74
    0
 49
-0.9525
 74
    0
 49
0
 74
    0
 49
-0.9525
 74
    0
 49
0
 74
    0
 49
-0.9525
 74
    0
  0
LTYPE
  5
40
330
5
100
AcDbSymbolTableRecord
100
AcDbLinetypeTableRecord
  2
DIVIDE2
 70
    0
  3
Divide (.5x) __..__..__..__..__..__..__..__.._
 72
   65
 73
    6
 40
15.875
 49
6.35
 74
    0
 49
-3.175
 74
    0
 49
0
 74
    0
 49
-3.175
 74
    0
 49
0
 74
    0
 49
-3.175
 74
    0
  0
LTYPE
  5
41
330
5
100
AcDbSymbolTableRecord
100
AcDbLinetypeTableRecord
  2
DIVIDEX2
 70
    0
  3
Divide (2x) ________  .  .  ________  .  .  _
 72
   65
 73
    6
 40
63.5
 49
25.4
 74
    0
 49
-12.7
 74
    0
 49
0
 74
    0
 49
-12.7
 74
    0
 49
0
 74
    0
 49
-12.7
 74
    0
  0
LTYPE
  5
42
330
5
100
AcDbSymbolTableRecord
100
AcDbLinetypeTableRecord
  2
BORDER
 70
    0
  3
Border __ __ . __ __ . __ __ . __ __ . __ __ .
 72
   65
 73
    6
 40
44.45
 49
12.7
 74
    0
 49
-6.35
 74
    0
 49
12.7
 74
    0
 49
-6.35
 74
    0
 49
0
 74
    0
 49
-6.35
 74
    0
  0
LTYPE
  5
43
330
5
100
AcDbSymbolTableRecord
100
AcDbLinetypeTableRecord
  2
BORDERTINY
 70
    0
  3
Border (.15x) __.__.__.__.__.__.__.__.__.__.__.
 72
   65
 73
    6
 40
6.6675
 49
1.905
 74
    0
 49
-0.9525
 74
    0
 49
1.905
 74
    0
 49
-0.9525
 74
    0
 49
0
 74
    0
 49
-0.9525
 74
    0
  0
LTYPE
  5
44
330
5
100
AcDbSymbolTableRecord
100
AcDbLinetypeTableRecord
  2
BORDER2
 70
    0
  3
Border (.5x) __.__.__.__.__.__.__.__.__.__.__.
 72
   65
 73
    6
 40
22.225
 49
6.35
 74
    0
 49
-3.175
 74
    0
 49
6.35
 74
    0
 49
-3.175
 74
    0
 49
0
 74
    0
 49
-3.175
 74
    0
  0
LTYPE
  5
45
330
5
100
AcDbSymbolTableRecord
100
AcDbLinetypeTableRecord
  2
BORDERX2
 70
    0
  3
Border (2x) ____  ____  .  ____  ____  .  ___
 72
   65
 73
    6
 40
88.89999999999999
 49
25.4
 74
    0
 49
-12.7
 74
    0
 49
25.4
 74
    0
 49
-12.7
 74
    0
 49
0
 74
    0
 49
-12.7
 74
    0
  0
LTYPE
  5
46
330
5
100
AcDbSymbolTableRecord
100
AcDbLinetypeTableRecord
  2
CENTER
 70
    0
  3
Center ____ _ ____ _ ____ _ ____ _ ____ _ ____
 72
   65
 73
    4
 40
50.8
 49
31.75
 74
    0
 49
-6.35
 74
    0
 49
6.35
 74
    0
 49
-6.35
 74
    0
  0
LTYPE
  5
47
330
5
100
AcDbSymbolTableRecord
100
AcDbLinetypeTableRecord
  2
CENTERTINY
 70
    0
  3
Center (.15x) ___ _ ___ _ ___ _ ___ _ ___ _ ___
 72
   65
 73
    4
 40
7.62
 49
4.7625
 74
    0
 49
-0.9525
 74
    0
 49
0.9525
 74
    0
 49
-0.9525
 74
    0
  0
LTYPE
  5
48
330
5
100
AcDbSymbolTableRecord
100
AcDbLinetypeTableRecord
  2
CENTER2
 70
    0
  3
Center (.5x) ___ _ ___ _ ___ _ ___ _ ___ _ ___
 72
   65
 73
    4
 40
28.575
 49
19.05
 74
    0
 49
-3.175
 74
    0
 49
3.175
 74
    0
 49
-3.175
 74
    0
  0
LTYPE
  5
49
330
5
100
AcDbSymbolTableRecord
100
AcDbLinetypeTableRecord
  2
CENTERX2
 70
    0
  3
Center (2x) ________  __  ________  __  _____
 72
   65
 73
    4
 40
101.6
 49
63.5
 74
    0
 49
-12.7
 74
    0
 49
12.7
 74
    0
 49
-12.7
 74
    0
  0
ENDTAB
  0
TABLE
  2
LAYER
  5
2
330
0
100
AcDbSymbolTable
 70
    1
  0
LAYER
  5
10
330
2
100
AcDbSymbolTableRecord
100
AcDbLayerTableRecord
  2
0
 70
    0
 62
    7
  6
CONTINUOUS
370
   -3
390
F
  0
ENDTAB
  0
TABLE
  2
STYLE
  5
3
330
0
100
AcDbSymbolTable
 70
    3
  0
STYLE
  5
4A
330
2
100
AcDbSymbolTableRecord
100
AcDbTextStyleTableRecord
  2
Standard
 70
    0
 40
0
 41
1
 50
0
 71
    0
 42
1
  3
txt
  4

  0
ENDTAB
  0
TABLE
  2
VIEW
  5
6
330
0
100
AcDbSymbolTable
 70
    0
  0
ENDTAB
  0
TABLE
  2
UCS
  5
7
330
0
100
AcDbSymbolTable
 70
    0
  0
ENDTAB
  0
TABLE
  2
APPID
  5
9
330
0
100
AcDbSymbolTable
 70
    1
  0
APPID
  5
12
330
9
100
AcDbSymbolTableRecord
100
AcDbRegAppTableRecord
  2
ACAD
 70
    0
  0
APPID
  5
4B
330
9
100
AcDbSymbolTableRecord
100
AcDbRegAppTableRecord
  2
LibreCad
 70
    0
  0
ENDTAB
  0
TABLE
  2
DIMSTYLE
  5
A
330
0
100
AcDbSymbolTable
 70
    1
100
AcDbDimStyleTable
 71
    1
  0
DIMSTYLE
105
4C
330
A
100
AcDbSymbolTableRecord
100
AcDbDimStyleTableRecord
  2
Standard
 70
    0
 40
1
 41
2.5
 42
0.625
 43
0.38
 44
1.25
 45
0
 46
0
 47
0
 48
0
 49
1
140
2.5
141
0.09
142
2.5
143
25.4
144
1
145
0
146
1
147
0.625
148
0
 71
    0
 72
    0
 73
    0
 74
    1
 75
    0
 76
    0
 77
    0
 78
    1
 79
    0
170
    0
171
    2
172
    0
173
    0
174
    0
175
    0
176
    0
177
    0
178
    0
179
    0
271
    2
272
    4
273
    2
274
    2
275
    0
276
    0
277
    2
278
    0
279
    0
280
    0
281
    0
282
    0
283
    1
284
    0
285
    0
286
    0
288
    0
289
    3
340
standard
341

371
   -2
372
   -2
  0
ENDTAB
  0
TABLE
  2
BLOCK_RECORD
  5
1
330
0
100
AcDbSymbolTable
 70
    2
  0
BLOCK_RECORD
  5
1F
330
1
100
AcDbSymbolTableRecord
100
AcDbBlockTableRecord
  2
*Model_Space
 70
    0
280
    1
281
    0
  0
BLOCK_RECORD
  5
1E
330
1
100
AcDbSymbolTableRecord
100
AcDbBlockTableRecord
  2
*Paper_Space
 70
    0
280
    1
281
    0
  0
ENDTAB
  0
ENDSEC
  0
SECTION
  2
BLOCKS
  0
BLOCK
  5
20
330
1F
100
AcDbEntity
  8
0
100
AcDbBlockBegin
  2
*Model_Space
 70
    0
 10
0
 20
0
 30
0
  3
*Model_Space
  1

  0
ENDBLK
  5
21
330
1F
100
AcDbEntity
  8
0
100
AcDbBlockEnd
  0
BLOCK
  5
1C
330
1B
100
AcDbEntity
  8
0
100
AcDbBlockBegin
  2
*Paper_Space
 70
    0
 10
0
 20
0
 30
0
  3
*Paper_Space
  1

  0
ENDBLK
  5
1D
330
1F
100
AcDbEntity
  8
0
100
AcDbBlockEnd
  0
ENDSEC
  0
SECTION
  2
ENTITIES
  0
LINE
  5
4D
100
AcDbEntity
  8
0
  6
ByLayer
 62
  256
370
   -1
100
AcDbLine
 10
220
 20
0
 11
220
 21
248
  0
LINE
  5
4E
100
AcDbEntity
  8
0
  6
ByLayer
 62
  256
370
   -1
100
AcDbLine
 10
0
 20
248
 11
0
 21
0
  0
ARC
  5
4F
100
AcDbEntity
  8
0
  6
ByLayer
 62
  256
370
   -1
100
AcDbCircle
 10
110
 20
131.2500000000001
 40
171.2500000000001
100
AcDbArc
 50
230.0337869562001
 51
309.9662130437999
  0
ARC
  5
50
100
AcDbEntity
  8
0
  6
ByLayer
 62
  256
370
   -1
100
AcDbCircle
 10
110
 20
116.7499999999999
 40
171.2500000000001
100
AcDbArc
 50
50.03378695620006
 51
129.9662130437999
  0
LWPOLYLINE
  5
51
100
AcDbEntity
  8
0
  6
ByLayer
 62
  256
370
   -1
100
AcDbPolyline
 90
  181
 70
    1
 43
0
 10
97.41524417984286
 20
140.2008303617379
 10
97.39968707884968
 20
140.2543321242428
 10
97.38599277683554
 20
140.3083407168449
 10
97.37417771376704
 20
140.3627913023991
 10
97.36425607359044
 20
140.4176185131499
 10
97.35623976720304
 20
140.4727565292039
 10
97.35013841815496
 20
140.5281391575479
 10
97.34595935109654
 20
140.5836999115107
 10
97.34370758298526
 20
140.6393720905847
 10
97.34338581706064
 20
140.6950888604949
 10
97.34499443960205
 20
140.7507833334351
 10
97.34853151946345
 20
140.8063886483649
 10
97.35399281039145
 20
140.8618380512819
 10
97.36137175612348
 20
140.9170649753539
 10
97.37065949825885
 20
140.972003120831
 10
97.38184488689215
 20
141.0265865346449
 10
97.39491449400026
 20
141.0807496895799
 10
97.40985262956025
 20
141.1344275629411
 10
97.42664136038867
 20
141.1875557146088
 10
97.44526053166696
 20
141.2400703644069
 10
97.46568779113845
 20
141.2919084686638
 10
97.48789861594334
 20
141.3430077958999
 10
97.51186634205675
 20
141.3933070015339
 10
97.53756219629894
 20
141.4427457015297
 10
97.56495533087856
 20
141.4912645448829
 10
97.59401286042434
 20
141.5388052848769
 10
97.62469990146366
 20
141.5853108490039
 10
97.65697961430105
 20
141.6307254074798
 10
97.69081324724353
 20
141.6749944402731
 10
97.72616018312148
 20
141.7180648025491
 10
97.76297798805034
 20
141.7598847884727
 10
97.80122246237214
 20
141.8004041932849
 10
97.84084769371654
 20
141.839574373568
 10
97.88180611211806
 20
141.8773483056436
 10
97.92404854712557
 20
141.9136806420278
 10
97.96752428682973
 20
141.9485277658649
 10
98.01218113874184
 20
141.9818478432919
 10
98.05796549245316
 20
142.0136008736629
 10
98.10482238399183
 20
142.0437487375637
 10
98.15269556180786
 20
142.0722552425807
 10
98.20152755430266
 20
142.0990861667449
 10
98.25125973882363
 20
142.1242092996147
 10
98.30183241204124
 20
142.147594480952
 10
98.35318486162075
 20
142.1692136369168
 10
98.40525543910944
 20
142.189040813784
 10
98.45798163394336
 20
142.2070522090878
 10
98.51130014849284
 20
142.2232262002069
 10
98.56514697404967
 20
142.2375433703157
 10
98.61945746767014
 20
142.2499865316979
 10
98.67416642977923
 20
142.2605407463759
 10
98.72920818244003
 20
142.269193344049
 10
98.78451664820345
 20
142.2759339373008
 10
98.84002542943107
 20
142.2807544340711
 10
98.89566788800677
 20
142.2836490473682
 10
98.95137722533497
 20
142.2846143022177
 10
99.00749905167893
 20
142.2836346911828
 10
99.06355250219255
 20
142.2806970534479
 10
99.11946928438377
 20
142.2758049680727
 10
99.17518127227004
 20
142.2689643953088
 10
99.23062058937836
 20
142.2601836693409
 10
99.28571969144335
 20
142.24947348813
 10
99.34041144869957
 20
142.2368469003807
 10
99.39462922766828
 20
142.222319289647
 10
99.44830697234055
 20
142.2059083555818
 10
99.50137928465486
 20
142.1876340923798
 10
99.55378150417714
 20
142.1675187644167
 10
99.60544978687727
 20
142.145586879118
 10
99.65632118291475
 20
142.1218651571069
 10
99.70633371333173
 20
142.0963824996468
 10
99.75542644556667
 20
142.0691699534289
 10
99.80353956769024
 20
142.0402606727469
 10
99.85061446127615
 20
142.0096898791069
 10
99.89659377282103
 20
141.9774948183078
 10
99.94142148361833
 20
141.9437147150728
 10
99.98504297800997
 20
141.90839072525
 10
100.0274051099269
 20
141.8715658856789
 10
100.0684562676384
 20
141.8332850617529
 10
100.1081464366349
 20
141.7935948927559
 10
100.1464272605612
 20
141.7525437350439
 10
100.183252100132
 20
141.7101816031271
 10
100.2185760899547
 20
141.666560108735
 10
100.2523561931907
 20
141.6217323979379
 10
100.2845512539893
 20
141.5757530863929
 10
100.3151220476297
 20
141.5286781928069
 10
100.3440313283108
 20
141.4805650706837
 10
100.3712438745288
 20
141.4314723384489
 10
100.3967265319888
 20
141.3814598080319
 10
100.420448254
 20
141.3305884119949
 10
100.4423801392986
 20
141.2789201292939
 10
100.4624954672626
 20
141.2265179097719
 10
100.4807697304641
 20
141.1734455974568
 10
100.497180664529
 20
141.1197678527859
 10
100.5117082752635
 20
141.0655500738169
 10
100.524334863012
 20
141.0108583165601
 10
100.5350450442229
 20
140.955759214495
 10
100.5438257701912
 20
140.9003198973867
 10
100.5506663429548
 20
140.844607909501
 10
100.5555584283301
 20
140.7886911273097
 10
100.5584960660653
 20
140.7326376767958
 10
100.5594756771007
 20
140.6765158504521
 10
100.5585104222506
 20
140.6208065131239
 10
100.5556158089534
 20
140.5651640545477
 10
100.5507953121832
 20
140.509655273321
 10
100.5440547189315
 20
140.4543468075569
 10
100.5354021212583
 20
140.3993050548959
 10
100.5248479065806
 20
140.3445960927878
 10
100.5124047451991
 20
140.2902855991667
 10
100.4980875750903
 20
140.23643877361
 10
100.4819135839708
 20
140.1831202590599
 10
100.4639021886665
 20
140.1303940642267
 10
100.4440750118002
 20
140.0783234867379
 10
100.4224558558345
 20
140.0269710371579
 10
100.3990706744983
 20
139.9763983639407
 10
100.3739475416277
 20
139.9266661794197
 10
100.3471166174641
 20
139.8778341869249
 10
100.3186101124471
 20
139.8299610091087
 10
100.2884622485453
 20
139.7831041175707
 10
100.2567092181748
 20
139.7373197638589
 10
100.2233891407475
 20
139.6926629119469
 10
100.188542016911
 20
139.6491871722432
 10
100.152209680527
 20
139.6069447372349
 10
100.1144357484504
 20
139.5659863188329
 10
100.0752655681673
 20
139.5263610874889
 10
100.0347461633553
 20
139.4881166131679
 10
99.99292617743096
 20
139.4512988082391
 10
99.94985581515584
 20
139.4159518723598
 10
99.90558678236317
 20
139.3821182394179
 10
99.86017222388666
 20
139.3498385265809
 10
99.81366665975996
 20
139.3191514855419
 10
99.76612591976574
 20
139.2900939559957
 10
99.71760707641215
 20
139.2627008214161
 10
99.66816837641686
 20
139.2370049671738
 10
99.61786917078234
 20
139.2130372410609
 10
99.56676984354635
 20
139.190826416256
 10
99.51493173928937
 20
139.1703991567841
 10
99.46241708949125
 20
139.1517799855058
 10
99.40928893782348
 20
139.1349912546779
 10
99.35561106446316
 20
139.1200531191169
 10
99.30144790952815
 20
139.1069835120101
 10
99.24686449571395
 20
139.0957981233758
 10
99.19192635023633
 20
139.0865103812411
 10
99.13669942616524
 20
139.0791314355091
 10
99.08125002324775
 20
139.073670144581
 10
99.02564470831705
 20
139.0701330647187
 10
98.96995023537785
 20
139.0685244421778
 10
98.91423346546796
 20
139.0688462081018
 10
98.85856128639395
 20
139.0710979762137
 10
98.80300053243035
 20
139.0752770432717
 10
98.74761790408635
 20
139.0813783923197
 10
98.69247988803222
 20
139.0893946987078
 10
98.63765267728157
 20
139.0993163388837
 10
98.58320209172787
 20
139.1111314019529
 10
98.52919349912574
 20
139.1248257039667
 10
98.47569173662075
 20
139.1403828049599
 10
98.42276103290855
 20
139.1577840286831
 10
98.37046493113215
 20
139.1770084850198
 10
98.31886621259584
 20
139.1980330950739
 10
98.26802682139805
 20
139.2208326188651
 10
98.21800779006706
 20
139.2453796856379
 10
98.16886916629117
 20
139.2716448267177
 10
98.12066994083354
 20
139.2995965108837
 10
98.07346797671136
 20
139.3292011822298
 10
98.02731993973295
 20
139.3604233004411
 10
97.98228123047105
 20
139.3932253834607
 10
97.93840591775344
 20
139.4275680524959
 10
97.89574667375425
 20
139.463410079278
 10
97.85435471076065
 20
139.50070843557
 10
97.81427971969335
 20
139.5394183448109
 10
97.77556981045245
 20
139.5794933358777
 10
97.73827145416134
 20
139.6208852988718
 10
97.70242942737832
 20
139.6635445428709
 10
97.66808675834417
 20
139.7074198555877
 10
97.63528467532323
 20
139.752458564851
 10
97.60406255711266
 20
139.7986066018287
 10
97.57445788576726
 20
139.8458085659507
 10
97.54650620160055
 20
139.8940077914089
 10
97.52024106052117
 20
139.9431464151837
 10
97.49569399374744
 20
139.9931654465147
 10
97.47289446995593
 20
140.0440048377129
 10
97.45186985990264
 20
140.0956035562497
 10
97.43264540356543
 20
140.1478996580256
  0
LWPOLYLINE
  5
52
100
AcDbEntity
  8
0
  6
ByLayer
 62
  256
370
   -1
100
AcDbPolyline
 90
  181
 70
    1
 43
0
 10
132.0684274746182
 20
169.52174477737
 10
132.0128221596875
 20
169.5182076975078
 10
131.9571276867481
 20
169.5165990749667
 10
131.9014109168382
 20
169.5169208408909
 10
131.845738737764
 20
169.5191726090027
 10
131.7901779838005
 20
169.5233516760607
 10
131.7347953554564
 20
169.5294530251087
 10
131.6796573394023
 20
169.5374693314969
 10
131.6248301286517
 20
169.5473909716727
 10
131.5703795430975
 20
169.5592060347419
 10
131.5163709504958
 20
169.5729003367558
 10
131.4628691879904
 20
169.588457437749
 10
131.4099384842785
 20
169.6058586614706
 10
131.3576423825019
 20
169.6250831178088
 10
131.3060436639656
 20
169.6461077278621
 10
131.2552042727679
 20
169.668907251654
 10
131.2051852414367
 20
169.6934543184268
 10
131.156046617661
 20
169.7197194595067
 10
131.1078473922031
 20
169.7476711436727
 10
131.0606454280807
 20
169.7772758150188
 10
131.0144973911025
 20
169.8084979332286
 10
130.9694586818406
 20
169.8413000162498
 10
130.9255833691228
 20
169.8756426852848
 10
130.8829241251235
 20
169.9114847120679
 10
130.8415321621299
 20
169.948783068359
 10
130.8014571710627
 20
169.9874929775999
 10
130.7627472618216
 20
170.0275679686668
 10
130.7254489055304
 20
170.06895993166
 10
130.6896068787477
 20
170.1116191756597
 10
130.6552642097132
 20
170.1554944883767
 10
130.6224621266923
 20
170.2005331976391
 10
130.591240008482
 20
170.2466812346177
 10
130.5616353371363
 20
170.2938831987397
 10
130.5336836529694
 20
170.3420824241978
 10
130.50741851189
 20
170.3912210479727
 10
130.4828714451165
 20
170.4412400793037
 10
130.460071921325
 20
170.492079470502
 10
130.4390473112715
 20
170.5436781890387
 10
130.4198228549343
 20
170.5959742908147
 10
130.4024216312117
 20
170.6489049945269
 10
130.3868645302183
 20
170.7024067570316
 10
130.3731702282044
 20
170.7564153496338
 10
130.3613551651359
 20
170.810865935189
 10
130.3514335249593
 20
170.8656931459388
 10
130.3434172185715
 20
170.920831161993
 10
130.3373158695236
 20
170.976213790337
 10
130.3331368024654
 20
171.031774544301
 10
130.3308850343538
 20
171.0874467233751
 10
130.3305632684291
 20
171.1431634932849
 10
130.3321718909707
 20
171.1988579662236
 10
130.3357089708321
 20
171.2544632811548
 10
130.3411702617601
 20
171.3099126840717
 10
130.3485492074921
 20
171.365139608143
 10
130.3578369496275
 20
171.4200777536209
 10
130.3690223382608
 20
171.4746611674348
 10
130.3820919453686
 20
171.5288243223697
 10
130.3970300809288
 20
171.5825021957309
 10
130.4138188117572
 20
171.6356303473988
 10
130.4324379830353
 20
171.6881449971968
 10
130.4528652425069
 20
171.7399831014538
 10
130.4750760673118
 20
171.7910824286898
 10
130.4990437934253
 20
171.8413816343238
 10
130.5247396476676
 20
171.8908203343197
 10
130.5521327822472
 20
171.9393391776728
 10
130.581190311793
 20
171.9868799176677
 10
130.6118773528322
 20
172.0333854817939
 10
130.6441570656695
 20
172.0788000402706
 10
130.677990698612
 20
172.1230690730638
 10
130.7133376344901
 20
172.1661394353389
 10
130.750155439419
 20
172.207959421263
 10
130.788399913741
 20
172.2484788260747
 10
130.828025145085
 20
172.2876490063578
 10
130.8689835634869
 20
172.325422938435
 10
130.9112259984945
 20
172.361755274819
 10
130.9547017381984
 20
172.3966023986547
 10
130.9993585901106
 20
172.4299224760828
 10
131.045142943822
 20
172.4616755064528
 10
131.0919998353608
 20
172.491823370355
 10
131.1398730131765
 20
172.520329875372
 10
131.1887050056715
 20
172.5471607995357
 10
131.2384371901927
 20
172.572283932406
 10
131.2890098634101
 20
172.5956691137428
 10
131.3403623129898
 20
172.6172882697076
 10
131.3924328904784
 20
172.637115446574
 10
131.4451590853124
 20
172.6551268418787
 10
131.4984775998618
 20
172.6713008329978
 10
131.5523244254187
 20
172.6856180031072
 10
131.6066349190395
 20
172.6980611644888
 10
131.6613438811483
 20
172.7086153791668
 10
131.7163856338093
 20
172.7172679768389
 10
131.7716940995728
 20
172.7240085700908
 10
131.8272028808002
 20
172.7288290668619
 10
131.8828453393761
 20
172.7317236801588
 10
131.9385546767043
 20
172.7326889350092
 10
131.9946765030483
 20
172.7317093239739
 10
132.0507299535622
 20
172.7287716862377
 10
132.1066467357533
 20
172.7238796008631
 10
132.1623587236395
 20
172.7170390280987
 10
132.2177980407477
 20
172.7082583021309
 10
132.2728971428129
 20
172.6975481209199
 10
132.3275889000691
 20
172.684921533172
 10
132.381806679038
 20
172.670393922437
 10
132.4354844237099
 20
172.653982988372
 10
132.4885567360244
 20
172.6357087251706
 10
132.5409589555467
 20
172.615593397207
 10
132.592627238247
 20
172.5936615119079
 10
132.6434986342844
 20
172.5699397898968
 10
132.6935111647015
 20
172.5444571324367
 10
132.7426038969364
 20
172.5172445862189
 10
132.7907170190598
 20
172.4883353055378
 10
132.8377919126459
 20
172.4577645118968
 10
132.8837712241908
 20
172.4255694510987
 10
132.9285989349879
 20
172.3917893478628
 10
132.9722204293797
 20
172.35646535804
 10
133.0145825612966
 20
172.3196405184697
 10
133.0556337190083
 20
172.2813596945429
 10
133.0953238880051
 20
172.2416695255468
 10
133.1336047119313
 20
172.2006183678348
 10
133.1704295515023
 20
172.1582562359179
 10
133.205753541325
 20
172.1146347415258
 10
133.2395336445608
 20
172.0698070307287
 10
133.2717287053595
 20
172.0238277191842
 10
133.302299499
 20
171.9767528255977
 10
133.3312087796811
 20
171.9286397034751
 10
133.358421325899
 20
171.8795469712397
 10
133.3839039833593
 20
171.8295344408227
 10
133.4076257053703
 20
171.7786630447848
 10
133.4295575906691
 20
171.7269947620852
 10
133.4496729186329
 20
171.6745925425628
 10
133.4679471818343
 20
171.6215202302482
 10
133.4843581158995
 20
171.5678424855759
 10
133.4988857266338
 20
171.5136247066079
 10
133.5115123143825
 20
171.4589329493509
 10
133.5222224955935
 20
171.4038338472859
 10
133.5310032215617
 20
171.348394530178
 10
133.5378437943254
 20
171.2926825422917
 10
133.5427358797009
 20
171.2367657600996
 10
133.5456735174358
 20
171.1807123095867
 10
133.5466531284714
 20
171.1245904832429
 10
133.5456878736214
 20
171.0688811459147
 10
133.5427932603241
 20
171.0132386873391
 10
133.537972763554
 20
170.9577299061109
 10
133.5312321703021
 20
170.9024214403478
 10
133.5225795726291
 20
170.8473796876867
 10
133.5120253579513
 20
170.7926707255776
 10
133.49958219657
 20
170.7383602319567
 10
133.485265026461
 20
170.6845134063999
 10
133.4690910353416
 20
170.6311948918508
 10
133.4510796400372
 20
170.5784686970167
 10
133.4312524631706
 20
170.5263981195279
 10
133.4096333072054
 20
170.4750456699487
 10
133.3862481258691
 20
170.4244729967306
 10
133.3611249929985
 20
170.3747408122097
 10
133.3342940688348
 20
170.3259088197149
 10
133.3057875638177
 20
170.2780356418987
 10
133.2756396999163
 20
170.2311787503598
 10
133.2438866695458
 20
170.1853943966487
 10
133.2105665921182
 20
170.1407375447369
 10
133.1757194682817
 20
170.0972618050331
 10
133.1393871318977
 20
170.0550193700249
 10
133.1016131998213
 20
170.0140609516228
 10
133.0624430195381
 20
169.9744357202787
 10
133.021923614726
 20
169.9361912459569
 10
132.980103628802
 20
169.8993734410281
 10
132.9370332665266
 20
169.8640265051498
 10
132.8927642337341
 20
169.8301928722078
 10
132.8473496752573
 20
169.7979131593701
 10
132.8008441111307
 20
169.7672261183309
 10
132.7533033711367
 20
169.7381685887847
 10
132.7047845277829
 20
169.710775454206
 10
132.6553458277873
 20
169.6850795999629
 10
132.6050466221531
 20
169.6611118738499
 10
132.5539472949171
 20
169.638901049045
 10
132.50210919066
 20
169.6184737895732
 10
132.449594540862
 20
169.5998546182949
 10
132.396466389194
 20
169.5830658874668
 10
132.3427885158338
 20
169.5681277519059
 10
132.2886253608987
 20
169.555058144799
 10
132.2340419470844
 20
169.5438727561648
 10
132.1791038016069
 20
169.53458501403
 10
132.1238768775355
 20
169.5272060682981
  0
LWPOLYLINE
  5
53
100
AcDbEntity
  8
0
  6
ByLayer
 62
  256
370
   -1
100
AcDbPolyline
 90
  181
 70
    1
 43
0
 10
82.43346984687159
 20
163.8288966320858
 10
82.4006677638509
 20
163.8739353413478
 10
82.36944564564018
 20
163.9200833783258
 10
82.3398409742945
 20
163.9672853424479
 10
82.31188929012801
 20
164.015484567906
 10
82.28562414904859
 20
164.0646231916819
 10
82.26107708227489
 20
164.1146422230128
 10
82.23827755848339
 20
164.1654816142106
 10
82.2172529484301
 20
164.217080332747
 10
82.19802849209289
 20
164.2693764345239
 10
82.18062726837032
 20
164.3223071382347
 10
82.16507016737671
 20
164.3758089007409
 10
82.15137586536278
 20
164.4298174933425
 10
82.1395608022945
 20
164.4842680788968
 10
82.12963916211771
 20
164.5390952896466
 10
82.1216228557301
 20
164.5942333057008
 10
82.11552150668199
 20
164.6496159340447
 10
82.111342439624
 20
164.7051766880088
 10
82.10909067151222
 20
164.7608488670828
 10
82.1087689055876
 20
164.8165656369927
 10
82.11037752812912
 20
164.8722601099319
 10
82.11391460799051
 20
164.9278654248631
 10
82.11937589891852
 20
164.9833148277796
 10
82.12675484465039
 20
165.0385417518517
 10
82.13604258678573
 20
165.0934798973287
 10
82.14722797541897
 20
165.148063311143
 10
82.16029758252679
 20
165.202226466078
 10
82.17523571808721
 20
165.2559043394388
 10
82.1920244489157
 20
165.309032491107
 10
82.21064362019349
 20
165.361547140905
 10
82.23107087966541
 20
165.4133852451616
 10
82.2532817044703
 20
165.4644845723977
 10
82.27724943058332
 20
165.5147837780317
 10
82.30294528482601
 20
165.564222478027
 10
82.33033841940559
 20
165.612741321381
 10
82.35939594895088
 20
165.660282061375
 10
82.3900829899904
 20
165.7067876255017
 10
82.4223627028278
 20
165.7522021839789
 10
82.45619633577009
 20
165.7964712167707
 10
82.49154327164801
 20
165.8395415790467
 10
82.52836107657687
 20
165.8813615649707
 10
82.56660555089867
 20
165.9218809697829
 10
82.60623078224312
 20
165.9610511500657
 10
82.64718920064487
 20
165.9988250821427
 10
82.68943163565248
 20
166.0351574185268
 10
82.73290737535631
 20
166.070004542363
 10
82.77756422726868
 20
166.103324619791
 10
82.8233485809797
 20
166.1350776501606
 10
82.87020547251872
 20
166.1652255140628
 10
82.91807865033439
 20
166.1937320190798
 10
82.96691064282919
 20
166.220562943244
 10
83.01664282735059
 20
166.2456860761138
 10
83.0672155005678
 20
166.2690712574497
 10
83.11856795014732
 20
166.2906904134159
 10
83.17063852763619
 20
166.3105175902817
 10
83.2233647224699
 20
166.3285289855868
 10
83.27668323701941
 20
166.344702976706
 10
83.3305300625762
 20
166.3590201468148
 10
83.38484055619718
 20
166.371463308197
 10
83.43954951830581
 20
166.3820175228737
 10
83.49459127096688
 20
166.3906701205476
 10
83.54989973673001
 20
166.397410713799
 10
83.6054085179576
 20
166.4022312105697
 10
83.6610509765333
 20
166.4051258238667
 10
83.71676031386188
 20
166.4060910787168
 10
83.77288214020568
 20
166.4051114676821
 10
83.82893559071961
 20
166.4021738299468
 10
83.8848523729108
 20
166.3972817445716
 10
83.9405643607971
 20
166.3904411718079
 10
83.99600367790528
 20
166.38166044584
 10
84.05110277997031
 20
166.3709502646286
 10
84.10579453722681
 20
166.3583236768798
 10
84.16001231619573
 20
166.3437960661456
 10
84.21369006086758
 20
166.3273851320807
 10
84.26676237318232
 20
166.3091108688798
 10
84.3191645927046
 20
166.2889955409156
 10
84.37083287540469
 20
166.267063655617
 10
84.42170427144228
 20
166.243341933606
 10
84.4717168018593
 20
166.2178592761458
 10
84.52080953409408
 20
166.1906467299279
 10
84.56892265621769
 20
166.1617374492469
 10
84.61599754980357
 20
166.131166655606
 10
84.66197686134871
 20
166.0989715948068
 10
84.70680457214578
 20
166.0651914915718
 10
84.75042606653778
 20
166.0298675017487
 10
84.79278819845432
 20
165.9930426621779
 10
84.83383935616631
 20
165.9547618382519
 10
84.8735295251627
 20
165.915071669255
 10
84.91181034908921
 20
165.874020511543
 10
84.94863518865989
 20
165.831658379627
 10
84.98395917848258
 20
165.788036885235
 10
85.01773928171873
 20
165.743209174437
 10
85.04993434251732
 20
165.6972298628928
 10
85.0805051361577
 20
165.650154969306
 10
85.10941441683882
 20
165.6020418471828
 10
85.13662696305671
 20
165.552949114948
 10
85.16210962051721
 20
165.502936584531
 10
85.1858313425283
 20
165.452065188493
 10
85.207763227827
 20
165.4003969057938
 10
85.2278785557906
 20
165.347994686271
 10
85.246152818992
 20
165.2949223739568
 10
85.26256375305741
 20
165.241244629284
 10
85.2770913637915
 20
165.187026850316
 10
85.28971795153991
 20
165.1323350930592
 10
85.30042813275129
 20
165.0772359909941
 10
85.30920885871923
 20
165.0217966738858
 10
85.31604943148297
 20
164.9660846859999
 10
85.3209415168586
 20
164.9101679038089
 10
85.32387915459368
 20
164.8541144532949
 10
85.324858765629
 20
164.7979926269506
 10
85.3238935107789
 20
164.742283289623
 10
85.3209988974818
 20
164.6866408310468
 10
85.31617840071158
 20
164.6311320498187
 10
85.3094378074598
 20
164.5758235840561
 10
85.30078520978668
 20
164.520781831395
 10
85.29023099510867
 20
164.4660728692859
 10
85.27778783372752
 20
164.4117623756648
 10
85.2634706636187
 20
164.3579155501091
 10
85.24729667249909
 20
164.304597035559
 10
85.2292852771948
 20
164.2518708407249
 10
85.2094581003285
 20
164.199800263237
 10
85.18783894436281
 20
164.148447813657
 10
85.1644537630269
 20
164.0978751404388
 10
85.13933063015619
 20
164.0481429559179
 10
85.11249970599239
 20
163.9993109634227
 10
85.0839932009754
 20
163.9514377856068
 10
85.05384533707372
 20
163.9045808940689
 10
85.02209230670319
 20
163.8587965403569
 10
84.98877222927563
 20
163.8141396884451
 10
84.95392510543938
 20
163.7706639487408
 10
84.91759276905542
 20
163.7284215137339
 10
84.87981883697879
 20
163.6874630953318
 10
84.84064865669558
 20
163.6478378639879
 10
84.80012925188349
 20
163.6095933896655
 10
84.75830926595977
 20
163.5727755847367
 10
84.71523890368418
 20
163.5374286488588
 10
84.67096987089151
 20
163.5035950159156
 10
84.62555531241522
 20
163.4713153030787
 10
84.57904974828809
 20
163.44062826204
 10
84.53150900829412
 20
163.4115707324938
 10
84.48299016494049
 20
163.3841775979138
 10
84.4335514649447
 20
163.358481743672
 10
84.38325225931068
 20
163.3345140175591
 10
84.33215293207469
 20
163.3123031927537
 10
84.2803148278177
 20
163.2918759332817
 10
84.22780017801971
 20
163.273256762004
 10
84.17467202635189
 20
163.2564680311758
 10
84.12099415299151
 20
163.241529895615
 10
84.0668309980566
 20
163.2284602885076
 10
84.01224758424229
 20
163.2172748998738
 10
83.95730943876478
 20
163.2079871577387
 10
83.90208251469319
 20
163.2006082120067
 10
83.8466331117762
 20
163.1951469210788
 10
83.79102779684538
 20
163.1916098412168
 10
83.73533332390581
 20
163.1900012186759
 10
83.67961655399641
 20
163.1903229846
 10
83.62394437492186
 20
163.1925747527117
 10
83.5683836209583
 20
163.1967538197698
 10
83.51300099261431
 20
163.2028551688179
 10
83.45786297656021
 20
163.2108714752046
 10
83.40303576580992
 20
163.2207931153818
 10
83.34858518025571
 20
163.2326081784506
 10
83.29457658765391
 20
163.2463024804649
 10
83.2410748251487
 20
163.2618595814577
 10
83.18814412143689
 20
163.2792608051799
 10
83.13584801966007
 20
163.298485261518
 10
83.08424930112382
 20
163.3195098715708
 10
83.03340990992601
 20
163.3423093953627
 10
82.98339087859502
 20
163.366856462136
 10
82.9342522548191
 20
163.3931216032149
 10
82.88605302936149
 20
163.4210732873819
 10
82.83885106523898
 20
163.4506779587281
 10
82.7927030282609
 20
163.4819000769378
 10
82.7476643189989
 20
163.5147021599589
 10
82.70378900628118
 20
163.5490448289927
 10
82.6611297622818
 20
163.5848868557757
 10
82.6197377992881
 20
163.6221852120667
 10
82.5796628082208
 20
163.6608951213077
 10
82.54095289897991
 20
163.700970112375
 10
82.50365454268879
 20
163.7423620753686
 10
82.46781251590627
 20
163.7850213193676
  0
LWPOLYLINE
  5
54
100
AcDbEntity
  8
0
  6
ByLayer
 62
  256
370
   -1
100
AcDbPolyline
 90
  181
 70
    1
 43
0
 10
130.3820919453689
 20
89.05030109886994
 10
130.3970300809293
 20
89.1039789722299
 10
130.4138188117576
 20
89.15710712389799
 10
130.4324379830357
 20
89.209621773696
 10
130.4528652425073
 20
89.26145987795297
 10
130.4750760673122
 20
89.3125592051899
 10
130.4990437934257
 20
89.36285841082392
 10
130.524739647668
 20
89.41229711081905
 10
130.5521327822477
 20
89.46081595417286
 10
130.5811903117933
 20
89.50835669416691
 10
130.6118773528326
 20
89.55486225829397
 10
130.6441570656699
 20
89.60027681676998
 10
130.6779906986122
 20
89.644545849563
 10
130.7133376344904
 20
89.68761621183776
 10
130.7501554394195
 20
89.729436197762
 10
130.7883999137412
 20
89.76995560257495
 10
130.8280251450855
 20
89.80912578285799
 10
130.8689835634871
 20
89.84689971493384
 10
130.9112259984946
 20
89.88323205131789
 10
130.9547017381987
 20
89.91807917515476
 10
130.999358590111
 20
89.95139925258198
 10
131.0451429438222
 20
89.98315228295286
 10
131.091999835361
 20
90.01330014685387
 10
131.139873013177
 20
90.04180665187096
 10
131.1887050056717
 20
90.06863757603486
 10
131.238437190193
 20
90.09376070890575
 10
131.2890098634103
 20
90.11714589024197
 10
131.34036231299
 20
90.13876504620694
 10
131.3924328904785
 20
90.15859222307401
 10
131.4451590853124
 20
90.17660361837773
 10
131.498477599862
 20
90.19277760949684
 10
131.5523244254189
 20
90.20709477960686
 10
131.6066349190396
 20
90.21953794098785
 10
131.6613438811484
 20
90.23009215566586
 10
131.7163856338094
 20
90.23874475333898
 10
131.7716940995728
 20
90.24548534659075
 10
131.8272028808002
 20
90.25030584336096
 10
131.8828453393761
 20
90.25320045665786
 10
131.9385546767044
 20
90.25416571150797
 10
131.9946765030483
 20
90.2531861004729
 10
132.050729953562
 20
90.25024846273797
 10
132.1066467357533
 20
90.24535637736285
 10
132.1623587236395
 20
90.23851580459902
 10
132.2177980407477
 20
90.22973507863088
 10
132.2728971428128
 20
90.21902489741997
 10
132.3275889000692
 20
90.20639830967087
 10
132.3818066790378
 20
90.19187069893697
 10
132.4354844237099
 20
90.17545976487187
 10
132.4885567360243
 20
90.15718550166997
 10
132.5409589555466
 20
90.13707017370595
 10
132.5926272382469
 20
90.11513828840791
 10
132.6434986342841
 20
90.09141656639687
 10
132.6935111647014
 20
90.06593390893588
 10
132.7426038969362
 20
90.03872136271795
 10
132.7907170190596
 20
90.0098120820369
 10
132.8377919126457
 20
89.97924128839688
 10
132.8837712241904
 20
89.94704622759787
 10
132.9285989349878
 20
89.91326612436208
 10
132.9722204293795
 20
89.87794213453998
 10
133.0145825612963
 20
89.84111729496888
 10
133.055633719008
 20
89.8028364710419
 10
133.0953238880046
 20
89.76314630204587
 10
133.1336047119308
 20
89.72209514433385
 10
133.1704295515018
 20
89.67973301241696
 10
133.2057535413245
 20
89.63611151802588
 10
133.2395336445603
 20
89.59128380722788
 10
133.2717287053589
 20
89.54530449568298
 10
133.3022994989996
 20
89.49822960209687
 10
133.3312087796807
 20
89.45011647997393
 10
133.3584213258985
 20
89.40102374773889
 10
133.3839039833587
 20
89.35101121732188
 10
133.4076257053696
 20
89.300139821285
 10
133.4295575906685
 20
89.24847153858397
 10
133.4496729186323
 20
89.19606931906199
 10
133.4679471818337
 20
89.14299700674789
 10
133.4843581158987
 20
89.08931926207607
 10
133.4988857266332
 20
89.0351014831069
 10
133.5115123143816
 20
88.98040972585086
 10
133.5222224955927
 20
88.92531062378495
 10
133.5310032215608
 20
88.86987130667691
 10
133.5378437943247
 20
88.8141593187909
 10
133.5427358797001
 20
88.75824253659985
 10
133.5456735174352
 20
88.70218908608595
 10
133.5466531284707
 20
88.64606725974195
 10
133.5456878736206
 20
88.59035792241389
 10
133.5427932603233
 20
88.53471546383794
 10
133.5379727635532
 20
88.47920668261096
 10
133.5312321703012
 20
88.42389821684698
 10
133.5225795726282
 20
88.36885646418587
 10
133.5120253579504
 20
88.31414750207799
 10
133.4995821965691
 20
88.25983700845697
 10
133.48526502646
 20
88.20599018289997
 10
133.4690910353408
 20
88.15267166835
 10
133.4510796400363
 20
88.09994547351576
 10
133.4312524631697
 20
88.04787489602788
 10
133.4096333072042
 20
87.99652244644793
 10
133.3862481258682
 20
87.94594977323086
 10
133.3611249929976
 20
87.89621758870886
 10
133.334294068834
 20
87.84738559621499
 10
133.3057875638168
 20
87.79951241839896
 10
133.2756396999154
 20
87.75265552686008
 10
133.2438866695449
 20
87.70687117314895
 10
133.2105665921174
 20
87.66221432123601
 10
133.1757194682808
 20
87.61873858153191
 10
133.1393871318968
 20
87.57649614652496
 10
133.1016131998205
 20
87.53553772812299
 10
133.0624430195375
 20
87.49591249677903
 10
133.0219236147252
 20
87.45766802245694
 10
132.9801036288011
 20
87.42085021752789
 10
132.9370332665258
 20
87.38550328164997
 10
132.8927642337331
 20
87.35166964870788
 10
132.8473496752565
 20
87.31938993586996
 10
132.8008441111299
 20
87.28870289483095
 10
132.7533033711358
 20
87.25964536528497
 10
132.704784527782
 20
87.23225223070588
 10
132.6553458277865
 20
87.20655637646288
 10
132.6050466221522
 20
87.18258865034997
 10
132.5539472949162
 20
87.16037782554487
 10
132.5021091906592
 20
87.13995056607288
 10
132.4495945408612
 20
87.12133139479484
 10
132.3964663891932
 20
87.10454266396688
 10
132.3427885158331
 20
87.089604528406
 10
132.2886253608978
 20
87.07653492129876
 10
132.2340419470837
 20
87.06534953266487
 10
132.1791038016061
 20
87.05606179052975
 10
132.1238768775348
 20
87.04868284479787
 10
132.0684274746175
 20
87.04322155386987
 10
132.0128221596869
 20
87.03968447400889
 10
131.9571276867475
 20
87.03807585146708
 10
131.9014109168376
 20
87.03839761739097
 10
131.8457387377636
 20
87.04064938550296
 10
131.7901779837999
 20
87.04482845256098
 10
131.734795355456
 20
87.05092980160873
 10
131.6796573394018
 20
87.05894610799689
 10
131.6248301286513
 20
87.06886774817391
 10
131.5703795430972
 20
87.08068281124199
 10
131.5163709504953
 20
87.09437711325589
 10
131.4628691879901
 20
87.10993421424905
 10
131.4099384842781
 20
87.12733543797188
 10
131.3576423825016
 20
87.14655989430884
 10
131.3060436639652
 20
87.16758450436295
 10
131.2552042727674
 20
87.19038402815389
 10
131.2051852414362
 20
87.21493109492691
 10
131.1560466176608
 20
87.24119623600697
 10
131.1078473922029
 20
87.26914792017399
 10
131.0606454280806
 20
87.29875259151885
 10
131.0144973911023
 20
87.3299747097299
 10
130.9694586818403
 20
87.36277679274988
 10
130.9255833691227
 20
87.39711946178495
 10
130.8829241251234
 20
87.432961488568
 10
130.8415321621297
 20
87.47025984485887
 10
130.8014571710625
 20
87.50896975409998
 10
130.7627472618216
 20
87.54904474516675
 10
130.7254489055304
 20
87.59043670816098
 10
130.6896068787477
 20
87.63309595215989
 10
130.6552642097132
 20
87.67697126487789
 10
130.6224621266923
 20
87.72200997413975
 10
130.5912400084821
 20
87.76815801111795
 10
130.5616353371364
 20
87.81535997524
 10
130.5336836529696
 20
87.86355920069788
 10
130.5074185118901
 20
87.91269782447401
 10
130.4828714451168
 20
87.96271685580496
 10
130.4600719213253
 20
88.01355624700295
 10
130.4390473112718
 20
88.06515496553899
 10
130.4198228549344
 20
88.11745106731496
 10
130.402421631212
 20
88.17038177102695
 10
130.3868645302186
 20
88.22388353353287
 10
130.3731702282045
 20
88.27789212613399
 10
130.3613551651362
 20
88.33234271168784
 10
130.3514335249594
 20
88.38716992243886
 10
130.3434172185719
 20
88.44230793849309
 10
130.3373158695238
 20
88.49769056683695
 10
130.3331368024656
 20
88.5532513208009
 10
130.330885034354
 20
88.60892349987483
 10
130.3305632684295
 20
88.66464026978498
 10
130.3321718909712
 20
88.72033474272385
 10
130.3357089708325
 20
88.77594005765488
 10
130.3411702617606
 20
88.8313894605719
 10
130.3485492074925
 20
88.88661638464296
 10
130.3578369496278
 20
88.94155453012101
 10
130.3690223382611
 20
88.99613794393488
  0
LWPOLYLINE
  5
55
100
AcDbEntity
  8
0
  6
ByLayer
 62
  256
370
   -1
100
AcDbPolyline
 90
  181
 70
    1
 43
0
 10
83.17063852763575
 20
91.42814363236394
 10
83.22336472246995
 20
91.44615502766808
 10
83.27668323701907
 20
91.4623290187869
 10
83.33053006257626
 20
91.47664618889596
 10
83.38484055619676
 20
91.48908935027791
 10
83.43954951830585
 20
91.4996435649559
 10
83.49459127096644
 20
91.50829616262897
 10
83.54989973673007
 20
91.51503675588106
 10
83.60540851795764
 20
91.51985725265095
 10
83.66105097653335
 20
91.52275186594775
 10
83.71676031386156
 20
91.52371712079801
 10
83.77288214020574
 20
91.52273750976195
 10
83.82893559071967
 20
91.51979987202796
 10
83.88485237291086
 20
91.51490778665199
 10
83.94056436079666
 20
91.50806721388787
 10
83.99600367790534
 20
91.49928648791999
 10
84.05110277997036
 20
91.48857630670889
 10
84.10579453722644
 20
91.47594971896086
 10
84.16001231619535
 20
91.46142210822589
 10
84.21369006086714
 20
91.44501117416101
 10
84.26676237318193
 20
91.42673691095996
 10
84.31916459270414
 20
91.40662158299598
 10
84.37083287540425
 20
91.38468969769697
 10
84.42170427144134
 20
91.36096797568601
 10
84.47171680185886
 20
91.33548531822495
 10
84.52080953409367
 20
91.30827277200797
 10
84.56892265621725
 20
91.279363491326
 10
84.61599754980315
 20
91.24879269768596
 10
84.66197686134784
 20
91.2165976368869
 10
84.70680457214492
 20
91.18281753365085
 10
84.75042606653695
 20
91.14749354382883
 10
84.79278819845345
 20
91.1106687042579
 10
84.83383935616544
 20
91.07238788033189
 10
84.87352952516183
 20
91.03269771133498
 10
84.91181034908837
 20
90.99164655362299
 10
84.94863518865905
 20
90.94928442170587
 10
84.98395917848178
 20
90.90566292731388
 10
85.01773928171784
 20
90.86083521651695
 10
85.04993434251595
 20
90.81485590497188
 10
85.08050513615686
 20
90.76778101138601
 10
85.10941441683795
 20
90.71966788926275
 10
85.13662696305585
 20
90.67057515702797
 10
85.16210962051595
 20
90.62056262661095
 10
85.18583134252694
 20
90.56969123057293
 10
85.20776322782567
 20
90.51802294787286
 10
85.22787855578926
 20
90.46562072835094
 10
85.24615281899077
 20
90.41254841603696
 10
85.26256375305557
 20
90.35887067136488
 10
85.27709136379013
 20
90.30465289239598
 10
85.28971795153858
 20
90.24996113513876
 10
85.30042813274953
 20
90.19486203307409
 10
85.30920885871787
 20
90.13942271596598
 10
85.31604943148125
 20
90.08371072807992
 10
85.32094151685686
 20
90.02779394588788
 10
85.32387915459196
 20
89.97174049537492
 10
85.32485876562724
 20
89.91561866903086
 10
85.32389351077714
 20
89.85990933170299
 10
85.32099889748004
 20
89.80426687312675
 10
85.31617840070986
 20
89.74875809189885
 10
85.30943780745756
 20
89.69344962613593
 10
85.30078520978456
 20
89.638407873475
 10
85.29023099510692
 20
89.58369891136587
 10
85.27778783372575
 20
89.5293884177449
 10
85.26347066361645
 20
89.47554159218875
 10
85.24729667249684
 20
89.42222307763896
 10
85.22928527719266
 20
89.3694968828049
 10
85.20945810032583
 20
89.31742630531701
 10
85.18783894436055
 20
89.26607385573701
 10
85.16445376302414
 20
89.21550118252
 10
85.13933063015394
 20
89.1657689979979
 10
85.11249970599025
 20
89.11693700550401
 10
85.08399320097314
 20
89.06906382768774
 10
85.05384533707144
 20
89.02220693614886
 10
85.02209230670097
 20
88.97642258243789
 10
84.98877222927345
 20
88.93176573052592
 10
84.95392510543674
 20
88.88828999082182
 10
84.91759276905277
 20
88.84604755581395
 10
84.87981883697617
 20
88.80508913741188
 10
84.84064865669336
 20
88.76546390606788
 10
84.80012925188127
 20
88.72721943174589
 10
84.75830926595665
 20
88.69040162681787
 10
84.71523890368154
 20
88.65505469093883
 10
84.67096987088887
 20
88.62122105799696
 10
84.62555531241257
 20
88.58894134515999
 10
84.57904974828544
 20
88.55825430412099
 10
84.53150900829144
 20
88.52919677457496
 10
84.48299016493785
 20
88.50180363999488
 10
84.43355146494255
 20
88.47610778575287
 10
84.38325225930804
 20
88.45214005963996
 10
84.33215293207205
 20
88.42992923483476
 10
84.28031482781506
 20
88.40950197536287
 10
84.22780017801692
 20
88.3908828040849
 10
84.17467202634874
 20
88.37409407325583
 10
84.12099415298886
 20
88.35915593769599
 10
84.06683099805342
 20
88.34608633058903
 10
84.01224758423965
 20
88.33490094195486
 10
83.95730943876167
 20
88.32561319982003
 10
83.90208251469055
 20
88.31823425408788
 10
83.84663311177346
 20
88.31277296315992
 10
83.79102779684277
 20
88.30923588329884
 10
83.73533332390306
 20
88.30762726075693
 10
83.67961655399324
 20
88.30794902668188
 10
83.62394437491926
 20
88.31020079479295
 10
83.56838362095566
 20
88.31437986185094
 10
83.51300099261202
 20
88.3204812109
 10
83.45786297655756
 20
88.32849751728688
 10
83.40303576580726
 20
88.33841915746383
 10
83.34858518025307
 20
88.35023422053197
 10
83.29457658765129
 20
88.36392852254576
 10
83.24107482514606
 20
88.37948562353986
 10
83.18814412143375
 20
88.39688684726173
 10
83.13584801965735
 20
88.41611130359891
 10
83.08424930112103
 20
88.43713591365301
 10
83.03340990992336
 20
88.45993543744373
 10
82.98339087859236
 20
88.48448250421799
 10
82.93425225481684
 20
88.51074764529696
 10
82.88605302935875
 20
88.53869932946398
 10
82.83885106523677
 20
88.56830400080995
 10
82.79270302825815
 20
88.59952611901988
 10
82.74766431899675
 20
88.63232820204092
 10
82.70378900627897
 20
88.66667087107494
 10
82.66112976227956
 20
88.70251289785799
 10
82.61973779928584
 20
88.73981125414889
 10
82.57966280821854
 20
88.77852116338997
 10
82.54095289897776
 20
88.81859615445794
 10
82.50365454268663
 20
88.8599881174509
 10
82.46781251590406
 20
88.90264736145102
 10
82.43346984686934
 20
88.94652267416788
 10
82.40066776384865
 20
88.99156138343005
 10
82.36944564563835
 20
89.03770942040796
 10
82.33984097429278
 20
89.0849113845309
 10
82.31188929012586
 20
89.13311060998896
 10
82.28562414904637
 20
89.182249233764
 10
82.26107708227315
 20
89.23226826509492
 10
82.23827755848166
 20
89.28310765629284
 10
82.21725294842834
 20
89.33470637482986
 10
82.19802849209114
 20
89.38700247660589
 10
82.18062726836855
 20
89.43993318031787
 10
82.16507016737488
 20
89.49343494282286
 10
82.15137586536105
 20
89.54744353542488
 10
82.13956080229273
 20
89.60189412097876
 10
82.12963916211595
 20
89.65672133172976
 10
82.12162285572838
 20
89.71185934778397
 10
82.11552150668066
 20
89.76724197612789
 10
82.11134243962228
 20
89.82280273009198
 10
82.10909067151086
 20
89.87847490916491
 10
82.10876890558634
 20
89.93419167907497
 10
82.11037752812817
 20
89.98988615201509
 10
82.11391460798914
 20
90.04549146694487
 10
82.11937589891716
 20
90.10094086986307
 10
82.12675484464955
 20
90.1561677939339
 10
82.13604258678484
 20
90.21110593941191
 10
82.14722797541813
 20
90.26568935322594
 10
82.16029758252596
 20
90.31985250816089
 10
82.17523571808634
 20
90.37353038152094
 10
82.19202444891434
 20
90.42665853318887
 10
82.21064362019266
 20
90.4791731829869
 10
82.23107087966454
 20
90.5310112872439
 10
82.25328170446943
 20
90.58211061447989
 10
82.27724943058284
 20
90.63240982011391
 10
82.30294528482514
 20
90.68184852010998
 10
82.33033841940475
 20
90.73036736346275
 10
82.35939594895046
 20
90.77790810345689
 10
82.39008298998957
 20
90.82441366758385
 10
82.42236270282696
 20
90.86982822606089
 10
82.45619633576976
 20
90.91409725885299
 10
82.49154327164767
 20
90.957167621129
 10
82.52836107657654
 20
90.9989876070529
 10
82.56660555089834
 20
91.03950701186494
 10
82.60623078224278
 20
91.07867719214798
 10
82.64718920064446
 20
91.11645112422494
 10
82.68943163565214
 20
91.15278346060788
 10
82.73290737535596
 20
91.18763058444507
 10
82.77756422726824
 20
91.22095066187188
 10
82.82334858097975
 20
91.25270369224285
 10
82.87020547251825
 20
91.28285155614385
 10
82.91807865033394
 20
91.31135806116188
 10
82.96691064282875
 20
91.33818898532485
 10
83.01664282735025
 20
91.36331211819574
 10
83.06721550056785
 20
91.38669729953196
 10
83.11856795014737
 20
91.40831645549699
  0
LWPOLYLINE
  5
56
100
AcDbEntity
  8
0
  6
ByLayer
 62
  256
370
   -1
100
AcDbPolyline
 90
  181
 70
    1
 43
0
 10
126.7489972436432
 20
142.2807544340711
 10
126.8046397022189
 20
142.2836490473682
 10
126.8603490395472
 20
142.2846143022177
 10
126.916470865891
 20
142.283634691182
 10
126.9725243164047
 20
142.2806970534468
 10
127.0284410985961
 20
142.2758049680717
 10
127.0841530864821
 20
142.2689643953079
 10
127.1395924035902
 20
142.2601836693401
 10
127.1946915056554
 20
142.2494734881287
 10
127.2493832629118
 20
142.2368469003798
 10
127.3036010418806
 20
142.2223192896457
 10
127.3572787865524
 20
142.2059083555807
 10
127.4103510988669
 20
142.1876340923798
 10
127.4627533183891
 20
142.1675187644157
 10
127.5144216010893
 20
142.145586879117
 10
127.5652929971266
 20
142.1218651571061
 10
127.6153055275438
 20
142.0963824996459
 10
127.6643982597787
 20
142.069169953428
 10
127.7125113819021
 20
142.0402606727469
 10
127.759586275488
 20
142.009689879106
 10
127.8055655870329
 20
141.9774948183078
 10
127.85039329783
 20
141.9437147150718
 10
127.8940147922218
 20
141.9083907252487
 10
127.9363769241387
 20
141.8715658856779
 10
127.9774280818504
 20
141.8332850617519
 10
128.0171182508469
 20
141.793594892755
 10
128.0553990747731
 20
141.752543735043
 10
128.0922239143441
 20
141.7101816031271
 10
128.1275479041667
 20
141.666560108735
 10
128.1613280074026
 20
141.6217323979379
 10
128.1935230682012
 20
141.5757530863929
 10
128.2240938618417
 20
141.5286781928069
 10
128.2530031425228
 20
141.4805650706837
 10
128.2802156887407
 20
141.4314723384489
 10
128.3056983462008
 20
141.3814598080319
 10
128.3294200682119
 20
141.3305884119939
 10
128.3513519535107
 20
141.2789201292939
 10
128.3714672814745
 20
141.2265179097719
 10
128.3897415446758
 20
141.1734455974568
 10
128.4061524787409
 20
141.1197678527849
 10
128.4206800894753
 20
141.065550073816
 10
128.4333066772237
 20
141.0108583165601
 10
128.4440168584349
 20
140.955759214495
 10
128.4527975844031
 20
140.9003198973867
 10
128.4596381571668
 20
140.844607909501
 10
128.4645302425423
 20
140.7886911273097
 10
128.4674678802772
 20
140.7326376767958
 10
128.4684474913128
 20
140.6765158504521
 10
128.4674822364626
 20
140.6208065131239
 10
128.4645876231655
 20
140.5651640545477
 10
128.4597671263953
 20
140.5096552733202
 10
128.4530265331433
 20
140.4543468075569
 10
128.4443739354703
 20
140.3993050548959
 10
128.4338197207925
 20
140.3445960927878
 10
128.4213765594112
 20
140.2902855991667
 10
128.4070593893021
 20
140.23643877361
 10
128.3908853981828
 20
140.1831202590599
 10
128.3728740028784
 20
140.1303940642259
 10
128.353046826012
 20
140.0783234867379
 10
128.3314276700463
 20
140.0269710371579
 10
128.3080424887102
 20
139.9763983639407
 10
128.2829193558397
 20
139.9266661794197
 10
128.2560884316759
 20
139.8778341869249
 10
128.2275819266588
 20
139.8299610091087
 10
128.1974340627574
 20
139.7831041175707
 10
128.1656810323869
 20
139.7373197638589
 10
128.1323609549595
 20
139.6926629119469
 10
128.0975138311229
 20
139.6491871722432
 10
128.0611814947389
 20
139.6069447372349
 10
128.0234075626625
 20
139.5659863188329
 10
127.9842373823795
 20
139.5263610874898
 10
127.9437179775673
 20
139.4881166131679
 10
127.9018979916432
 20
139.4512988082391
 10
127.858827629368
 20
139.4159518723607
 10
127.8145585965752
 20
139.3821182394179
 10
127.7691440380987
 20
139.3498385265809
 10
127.722638473972
 20
139.3191514855419
 10
127.6750977339778
 20
139.2900939559957
 10
127.6265788906241
 20
139.2627008214161
 10
127.5771401906287
 20
139.2370049671738
 10
127.5268409849945
 20
139.2130372410609
 10
127.4757416577583
 20
139.190826416256
 10
127.4239035535014
 20
139.1703991567841
 10
127.3713889037034
 20
139.1517799855058
 10
127.3182607520355
 20
139.1349912546779
 10
127.2645828786753
 20
139.1200531191169
 10
127.2104197237402
 20
139.1069835120101
 10
127.155836309926
 20
139.0957981233758
 10
127.1008981644485
 20
139.0865103812411
 10
127.0456712403772
 20
139.0791314355091
 10
126.9902218374599
 20
139.073670144581
 10
126.9346165225293
 20
139.0701330647202
 10
126.8789220495899
 20
139.0685244421778
 10
126.8232052796801
 20
139.0688462081018
 10
126.7675331006061
 20
139.0710979762137
 10
126.7119723466424
 20
139.0752770432717
 10
126.6565897182985
 20
139.0813783923197
 10
126.6014517022445
 20
139.0893946987078
 10
126.5466244914938
 20
139.0993163388851
 10
126.4921739059399
 20
139.1111314019529
 10
126.438165313338
 20
139.1248257039667
 10
126.3846635508329
 20
139.1403828049599
 10
126.3317328471208
 20
139.1577840286831
 10
126.2794367453443
 20
139.1770084850198
 10
126.227838026808
 20
139.1980330950739
 10
126.1769986356103
 20
139.2208326188651
 10
126.1269796042792
 20
139.2453796856387
 10
126.0778409805035
 20
139.2716448267177
 10
126.0296417550457
 20
139.2995965108847
 10
125.9824397909236
 20
139.3292011822298
 10
125.9362917539453
 20
139.3604233004411
 10
125.8912530446833
 20
139.3932253834607
 10
125.8473777319658
 20
139.4275680524959
 10
125.8047184879664
 20
139.4634100792789
 10
125.7633265249728
 20
139.50070843557
 10
125.7232515339056
 20
139.5394183448109
 10
125.6845416246646
 20
139.5794933358777
 10
125.6472432683734
 20
139.6208852988718
 10
125.6114012415909
 20
139.6635445428709
 10
125.5770585725561
 20
139.707419855589
 10
125.5442564895355
 20
139.752458564851
 10
125.5130343713252
 20
139.7986066018287
 10
125.4834296999796
 20
139.8458085659507
 10
125.4554780158129
 20
139.8940077914089
 10
125.4292128747334
 20
139.9431464151837
 10
125.4046658079598
 20
139.9931654465161
 10
125.3818662841685
 20
140.0440048377129
 10
125.3608416741152
 20
140.0956035562497
 10
125.3416172177777
 20
140.1478996580256
 10
125.3242159940554
 20
140.2008303617379
 10
125.3086588930619
 20
140.2543321242428
 10
125.2949645910479
 20
140.3083407168449
 10
125.2831495279796
 20
140.3627913023991
 10
125.2732278878028
 20
140.4176185131499
 10
125.2652115814151
 20
140.4727565292039
 10
125.2591102323673
 20
140.5281391575479
 10
125.2549311653091
 20
140.5836999115107
 10
125.2526793971975
 20
140.6393720905847
 10
125.2523576312729
 20
140.6950888604949
 10
125.2539662538146
 20
140.7507833334351
 10
125.257503333676
 20
140.8063886483649
 10
125.262964624604
 20
140.8618380512829
 10
125.2703435703361
 20
140.9170649753539
 10
125.2796313124712
 20
140.972003120831
 10
125.2908167011045
 20
141.0265865346449
 10
125.3038863082125
 20
141.0807496895799
 10
125.3188244437727
 20
141.1344275629411
 10
125.335613174601
 20
141.1875557146088
 10
125.3542323458792
 20
141.2400703644069
 10
125.3746596053509
 20
141.2919084686638
 10
125.3968704301558
 20
141.343007795899
 10
125.420838156269
 20
141.3933070015339
 10
125.4465340105113
 20
141.4427457015297
 10
125.4739271450911
 20
141.4912645448829
 10
125.5029846746366
 20
141.5388052848769
 10
125.5336717156759
 20
141.5853108490039
 10
125.5659514285133
 20
141.6307254074798
 10
125.5997850614558
 20
141.6749944402731
 10
125.6351319973338
 20
141.7180648025491
 10
125.6719498022627
 20
141.7598847884717
 10
125.7101942765845
 20
141.8004041932849
 10
125.7498195079288
 20
141.839574373568
 10
125.7907779263304
 20
141.8773483056436
 10
125.8330203613379
 20
141.9136806420278
 10
125.876496101042
 20
141.9485277658649
 10
125.9211529529542
 20
141.9818478432919
 10
125.9669373066655
 20
142.0136008736629
 10
126.0137941982042
 20
142.0437487375637
 10
126.06166737602
 20
142.0722552425807
 10
126.1104993685149
 20
142.0990861667449
 10
126.160231553036
 20
142.1242092996147
 10
126.2108042262535
 20
142.147594480952
 10
126.2621566758331
 20
142.1692136369168
 10
126.3142272533217
 20
142.189040813784
 10
126.3669534481556
 20
142.2070522090878
 10
126.4202719627051
 20
142.2232262002069
 10
126.474118788262
 20
142.2375433703157
 10
126.5284292818826
 20
142.2499865316979
 10
126.5831382439914
 20
142.2605407463759
 10
126.6381799966523
 20
142.2691933440476
 10
126.6934884624157
 20
142.2759339372999
  0
CIRCLE
  5
57
100
AcDbEntity
  8
0
  6
ByLayer
 62
  256
370
   -1
100
AcDbCircle
 10
32
 20
83.50000000000001
 40
1.5
  0
CIRCLE
  5
58
100
AcDbEntity
  8
0
  6
ByLayer
 62
  256
370
   -1
100
AcDbCircle
 10
50
 20
83.50000000000001
 40
1.5
  0
CIRCLE
  5
59
100
AcDbEntity
  8
0
  6
ByLayer
 62
  256
370
   -1
100
AcDbCircle
 10
50
 20
22.5
 40
1.5
  0
CIRCLE
  5
5A
100
AcDbEntity
  8
0
  6
ByLayer
 62
  256
370
   -1
100
AcDbCircle
 10
32
 20
22.5
 40
1.5
  0
CIRCLE
  5
5B
100
AcDbEntity
  8
0
  6
ByLayer
 62
  256
370
   -1
100
AcDbCircle
 10
170
 20
22.5
 40
1.5
  0
CIRCLE
  5
5C
100
AcDbEntity
  8
0
  6
ByLayer
 62
  256
370
   -1
100
AcDbCircle
 10
188
 20
22.5
 40
1.5
  0
CIRCLE
  5
5D
100
AcDbEntity
  8
0
  6
ByLayer
 62
  256
370
   -1
100
AcDbCircle
 10
188
 20
83.50000000000001
 40
1.5
  0
CIRCLE
  5
5E
100
AcDbEntity
  8
0
  6
ByLayer
 62
  256
370
   -1
100
AcDbCircle
 10
170
 20
83.50000000000001
 40
1.5
  0
CIRCLE
  5
5F
100
AcDbEntity
  8
0
  6
ByLayer
 62
  256
370
   -1
100
AcDbCircle
 10
30
 20
207
 40
1.5
  0
CIRCLE
  5
60
100
AcDbEntity
  8
0
  6
ByLayer
 62
  256
370
   -1
100
AcDbCircle
 10
60
 20
207
 40
1.5
  0
CIRCLE
  5
61
100
AcDbEntity
  8
0
  6
ByLayer
 62
  256
370
   -1
100
AcDbCircle
 10
60
 20
183
 40
1.5
  0
CIRCLE
  5
62
100
AcDbEntity
  8
0
  6
ByLayer
 62
  256
370
   -1
100
AcDbCircle
 10
30
 20
183
 40
1.5
  0
CIRCLE
  5
63
100
AcDbEntity
  8
0
  6
ByLayer
 62
  256
370
   -1
100
AcDbCircle
 10
160
 20
183
 40
1.5
  0
CIRCLE
  5
64
100
AcDbEntity
  8
0
  6
ByLayer
 62
  256
370
   -1
100
AcDbCircle
 10
190
 20
183
 40
1.5
  0
CIRCLE
  5
65
100
AcDbEntity
  8
0
  6
ByLayer
 62
  256
370
   -1
100
AcDbCircle
 10
190
 20
207
 40
1.5
  0
CIRCLE
  5
66
100
AcDbEntity
  8
0
  6
ByLayer
 62
  256
370
   -1
100
AcDbCircle
 10
160
 20
207
 40
1.5
  0
CIRCLE
  5
67
100
AcDbEntity
  8
0
  6
ByLayer
 62
  256
370
   -1
100
AcDbCircle
 10
10
 20
238
 40
1.5
  0
CIRCLE
  5
68
100
AcDbEntity
  8
0
  6
ByLayer
 62
  256
370
   -1
100
AcDbCircle
 10
110
 20
238
 40
1.5
  0
CIRCLE
  5
69
100
AcDbEntity
  8
0
  6
ByLayer
 62
  256
370
   -1
100
AcDbCircle
 10
210
 20
238
 40
1.499999999999997
  0
CIRCLE
  5
6A
100
AcDbEntity
  8
0
  6
ByLayer
 62
  256
370
   -1
100
AcDbCircle
 10
210
 20
124
 40
1.5
  0
CIRCLE
  5
6B
100
AcDbEntity
  8
0
  6
ByLayer
 62
  256
370
   -1
100
AcDbCircle
 10
210
 20
10
 40
1.5
  0
CIRCLE
  5
6C
100
AcDbEntity
  8
0
  6
ByLayer
 62
  256
370
   -1
100
AcDbCircle
 10
110
 20
10
 40
1.5
  0
CIRCLE
  5
6D
100
AcDbEntity
  8
0
  6
ByLayer
 62
  256
370
   -1
100
AcDbCircle
 10
10
 20
10
 40
1.5
  0
CIRCLE
  5
6E
100
AcDbEntity
  8
0
  6
ByLayer
 62
  256
370
   -1
100
AcDbCircle
 10
10
 20
124
 40
1.5
  0
ENDSEC
  0
SECTION
  2
OBJECTS
  0
DICTIONARY
  5
C
330
0
100
AcDbDictionary
281
    1
  3
ACAD_GROUP
350
D
  0
DICTIONARY
  5
D
330
C
100
AcDbDictionary
281
    1
  0
ENDSEC
  0
EOF
